HIERARCHY
ROOT Hips
{
  OFFSET 19.6225 93.5595 -110.879
  CHANNELS 6 Xposition Yposition Zposition Zrotation Xrotation Yrotation
  JOINT ToSpine
  {
    OFFSET -2.69724 7.43032 -0.144315
    CHANNELS 3 Zrotation Xrotation Yrotation
    JOINT Spine
    {
      OFFSET -0.0310711 10.7595 1.96963
      CHANNELS 3 Zrotation Xrotation Yrotation
      JOINT Spine1
      {
        OFFSET 13.1342 3.43533 0.764692
        CHANNELS 3 Zrotation Xrotation Yrotation
        JOINT Neck
        {
          OFFSET 29.8703 7.82586 -0.130764
          CHANNELS 3 Zrotation Xrotation Yrotation
          JOINT Head
          {
            OFFSET 9.52751 0.295786 -0.907742
            CHANNELS 3 Zrotation Xrotation Yrotation
            End Site
            {
              OFFSET 16.4037 0.713936 2.7358
            }
          }
        }
        JOINT LeftShoulder
        {
          OFFSET 27.5574 4.95586 2.47156
          CHANNELS 3 Zrotation Xrotation Yrotation
          JOINT LeftArm
          {
            OFFSET 1.20734 -0.998971 20.1238
            CHANNELS 3 Zrotation Xrotation Yrotation
            JOINT LeftForeArm
            {
              OFFSET 26.8049 -0.0536703 -0.155908
              CHANNELS 3 Zrotation Xrotation Yrotation
              JOINT LeftHand
              {
                OFFSET 26.6817 0 0.320147
                CHANNELS 3 Zrotation Xrotation Yrotation
                End Site
                {
                  OFFSET 18.6119 0 0.382219
                }
              }
            }
          }
        }
        JOINT RightShoulder
        {
          OFFSET 27.5927 4.71444 -2.65209
          CHANNELS 3 Zrotation Xrotation Yrotation
          JOINT RightArm
          {
            OFFSET 2.83739 -1.17114 -18.7564
            CHANNELS 3 Zrotation Xrotation Yrotation
            JOINT RightForeArm
            {
              OFFSET 28.839 -0.0548439 1.22491
              CHANNELS 3 Zrotation Xrotation Yrotation
              JOINT RightHand
              {
                OFFSET 26.5114 0 -0.101894
                CHANNELS 3 Zrotation Xrotation Yrotation
                End Site
                {
                  OFFSET 18.2168 0 0
                }
              }
            }
          }
        }
      }
    }
  }
  JOINT LeftUpLeg
  {
    OFFSET -4.76168 -1.9167 -10.2353
    CHANNELS 3 Zrotation Xrotation Yrotation
    JOINT LeftLeg
    {
      OFFSET 2.55951 -42.0585 -8.02213
      CHANNELS 3 Zrotation Xrotation Yrotation
      JOINT LeftFoot
      {
        OFFSET 3.16357 -42.5282 -3.95426
        CHANNELS 3 Zrotation Xrotation Yrotation
        JOINT LeftToeBase
        {
          OFFSET 0.346054 -6.02161 12.8035
          CHANNELS 3 Zrotation Xrotation Yrotation
          End Site
          {
            OFFSET 0.134235 -1.35082 5.13018
          }
        }
      }
    }
  }
  JOINT RightUpLeg
  {
    OFFSET -4.94151 -1.41743 10.6446
    CHANNELS 3 Zrotation Xrotation Yrotation
    JOINT RightLeg
    {
      OFFSET -2.56294 -42.0364 -7.94377
      CHANNELS 3 Zrotation Xrotation Yrotation
      JOINT RightFoot
      {
        OFFSET -3.0952 -42.555 -4.02241
        CHANNELS 3 Zrotation Xrotation Yrotation
        JOINT RightToeBase
        {
          OFFSET -0.0828122 -6.13587 12.8035
          CHANNELS 3 Zrotation Xrotation Yrotation
          End Site
          {
            OFFSET -0.131328 -1.35082 5.13018
          }
        }
      }
    }
  }
}
MOTION
Frames:	17
Frame Time:	0.0333333
11.5783 80.8328 -21.8242 77.1185 -28.902 0.514392 -70.1915 0 88.8779 130.161 66.753 -45.6013 -5.51178 20.1732 10.5705 -129.843 44.0634 151.371 145.567 86.1635 -109.508 -0.45754 -18.1776 -29.8165 -66.0024 30.2013 -137.216 28.3943 -3.64427 -95.9583 0.420957 0.000575445 0.35866 -2.05684 6.61323 44.7555 -132.874 -3.18217 95.3039 8.92773 -4.98967 61.275 0.58676 0.000331017 0.0646653 -16.1616 9.04462 79.9497 -60.6721 83.9236 34.6569 0.159981 -14.9861 -1.28568 4.88871 -12.9268 18.1607 -25.9163 -14.0485 85.5416 8.26036 67.7009 0.381554 -3.91522 -9.93554 1.08944 1.79517 -14.6852 -0.841458 
10.8008 80.0908 -19.053 76.3747 -27.2994 -0.539414 -70.1915 0 88.8779 129.988 66.1114 -44.8232 -5.58989 19.8361 9.45607 -129.956 44.2744 151.347 139.076 85.8897 -103.352 -0.395794 -18.0617 -29.2866 -64.9 30.4438 -139.244 27.9162 -3.12552 -95.1337 0.420957 0.000575445 0.35866 -2.26347 7.1382 45.31 -134.638 -2.9083 98.1827 10.8599 -6.07795 61.2683 0.58676 0.000331017 0.0646653 -15.1179 10.0966 80.3154 -63.621 84.2706 41.4788 0.592068 -15.5489 -1.32752 6.47191 -15.3539 21.524 -23.2986 -15.3478 84.8274 12.7159 72.6982 1.56701 -4.90449 -10.1721 1.14057 2.30016 -17.7921 -11.7115 
10.2108 79.5848 -16.7606 76.1668 -26.3157 -1.64066 -70.1915 0 88.8779 130.562 65.1716 -44.8866 -6.04204 19.5946 8.21555 -130.566 44.1239 151.996 143.749 85.8152 -108.296 -0.207478 -17.4224 -28.248 -63.8593 30.9811 -141.182 29.0298 -2.80454 -94.3079 0.420957 0.000575445 0.35866 -2.52894 7.73565 46.1676 -135.37 -2.22312 100.617 11.9768 -6.68742 61.3552 0.58676 0.000331017 0.0646653 -15.574 11.8279 81.4149 -59.4984 84.3946 42.6662 0.741643 -16.1197 -1.36923 8.0684 -17.4813 23.641 -21.3149 -16.5864 84.2955 17.4767 76.5877 -3.3687 -5.02189 -13.2012 1.24945 2.14567 -14.2811 -11.0235 
9.80167 79.4962 -14.826 76.0008 -25.8889 -2.37985 -70.1915 0 88.8779 130.737 65.0424 -44.6415 -6.2444 19.5459 8.07757 -129.883 43.9257 152.632 143.962 85.4625 -108.012 -0.220748 -17.5269 -28.1605 -63.6142 30.8405 -141.844 30.5478 -2.65496 -93.7661 0.420957 0.000575445 0.35866 -2.4476 7.56333 45.8445 -135.731 -2.66906 102.657 13.2096 -7.52505 60.9458 0.58676 0.000331017 0.0646653 -17.0293 13.9344 81.9501 -49.5032 83.9928 35.6368 1.11 -15.9428 -1.35137 8.05475 -17.4834 24.912 -21.2456 -16.8277 83.3139 19.2691 77.7189 -5.93951 -6.12583 -15.9216 1.33358 2.08778 -12.3637 -10.6938 
9.54427 79.5249 -13.381 75.5558 -25.2996 -3.05246 -70.1915 0 88.8779 129.557 65.5527 -43.3888 -6.07788 19.3912 8.66059 -129.476 43.9984 153.245 140.61 85.0938 -104.525 -0.268837 -17.7533 -28.2733 -63.9269 29.781 -142.258 30.8272 -2.6276 -93.6706 0.420957 0.000575445 0.35866 -2.45522 7.57293 45.8791 -136.3 -3.03565 103.843 14.681 -8.44308 60.8122 0.58676 0.000331017 0.0646653 -18.6834 15.1752 81.5382 -40.8068 83.3178 28.757 0.791739 -16.4379 -1.39295 7.69975 -17.0428 24.0486 -21.2308 -16.8079 82.7686 19.9848 78.1647 -7.32414 -6.56879 -18.2028 1.38323 2.05993 -10.7511 -10.9331 
9.41369 79.6346 -12.4826 75.0975 -24.7366 -3.8394 -70.1915 0 88.8779 128.8 65.4917 -41.9379 -6.09115 19.24 8.05734 -129.765 44.1106 153.579 140.618 85.1128 -104.565 -0.150128 -17.3733 -27.5533 -64.0773 29.0414 -143.497 30.5594 -2.68327 -93.8094 0.420957 0.000575445 0.35866 -2.50029 7.64369 46.1581 -136.739 -2.23484 105.335 15.4804 -8.9112 60.8435 0.58676 0.000331017 0.0646653 -20.4595 15.9074 81.2509 -34.42 82.7675 25.4829 0.618832 -17.15 -1.45088 6.54522 -15.4118 20.929 -20.7257 -16.6332 83.2281 20.9379 78.5729 -7.9965 -8.72488 -16.4293 1.30739 2.24067 -15.6206 -13.2601 
9.37332 79.9925 -11.91 74.7311 -24.3574 -4.45504 -70.1915 0 88.8779 128.284 65.5253 -40.7511 -6.2626 19.1976 7.62756 -129.596 44.1124 153.802 141.79 85.1948 -105.441 -0.0746732 -17.1655 -26.9125 -64.118 28.5034 -144.864 30.2327 -2.65218 -93.815 0.420957 0.000575445 0.35866 -2.48324 7.61276 46.0889 -136.901 -2.53359 105.7 16.097 -9.2713 60.8694 0.58676 0.000331017 0.0646653 -22.5366 16.7708 81.1641 -29.0463 81.8423 20.7669 1.16576 -16.2433 -1.37172 6.33869 -15.1027 20.2254 -20.8497 -16.2299 83.5137 19.5269 78.0391 -7.31839 -9.47229 -15.7575 1.30227 2.26225 -18.1954 -14.0532 
9.36403 80.4781 -11.6573 74.0371 -24.1785 -4.9742 -70.1915 0 88.8779 127.614 66.1878 -40.4246 -6.79104 19.1503 8.9225 -129.334 44.2203 153.431 144.682 85.7912 -108.064 -0.0688539 -17.2457 -26.615 -64.0303 27.7605 -146.503 30.1705 -2.64079 -93.8066 0.420957 0.000575445 0.35866 -2.43428 7.533 45.8571 -137.332 -0.997842 106.236 16.7015 -9.67434 60.7769 0.58676 0.000331017 0.0646653 -24.485 17.8969 81.314 -24.6821 80.3629 14.4073 0.877138 -16.4535 -1.39275 6.12367 -14.912 21.8234 -20.8564 -15.6502 83.833 17.2868 77.047 -6.27692 -8.96415 -16.1297 1.3057 2.25664 -17.2868 -13.0711 
9.39367 80.9998 -11.7137 73.4896 -23.7368 -5.24641 -70.1915 0 88.8779 125.773 66.7381 -39.2428 -6.75352 18.7603 10.093 -129.789 44.2533 153.368 149.532 86.1767 -113.159 -0.00216809 -17.0514 -26.0533 -64.4382 26.804 -148.222 29.635 -2.53666 -93.724 0.420957 0.000575445 0.35866 -2.34761 7.41623 45.2526 -137.516 -1.14712 106.48 16.6526 -9.8048 60.3783 0.58676 0.000331017 0.0646653 -26.3021 18.9474 82.0567 -20.1708 78.3895 8.5219 0.00723873 -17.2774 -1.47516 5.89327 -14.4792 20.1264 -21.0022 -15.2817 84.1821 15.5657 75.8788 -4.54143 -8.90723 -15.4612 1.30715 2.26944 -17.9819 -14.7508 
9.42998 81.6721 -12.0274 73.13 -23.3338 -5.23179 -70.1915 0 88.8779 124.324 66.8892 -37.8141 -6.69689 18.4958 10.1745 -129.072 43.9462 152.755 147.636 85.9133 -111.336 0.0871382 -16.8345 -25.1091 -65.1632 26.148 -149.957 29.3068 -2.30594 -93.3743 0.420957 0.000575445 0.35866 -2.37744 7.42212 45.6119 -138.026 -0.755512 107.106 16.7531 -10.0059 60.0455 0.58676 0.000331017 0.0646653 -28.2334 20.0746 83.5589 -16.8482 76.2105 3.15898 -0.0733072 -17.229 -1.47338 6.9854 -16.0096 20.4403 -21.7468 -15.1487 84.1621 13.1702 74.1056 -3.11035 -7.30851 -16.1009 1.32601 2.2488 -16.008 -13.225 
9.49773 82.4506 -12.6714 72.6987 -23.2096 -5.49207 -70.1915 0 88.8779 122.678 67.5415 -36.477 -6.47154 18.8048 10.0885 -127.374 43.3358 150.856 151.996 86.2003 -114.828 0.03384 -17.5094 -24.3355 -65.4103 25.5222 -151.925 29.6134 -1.91997 -92.6529 0.420957 0.000575445 0.35866 -2.16474 6.67595 45.9587 -138.58 -0.396885 107.592 17.0801 -10.2218 60.035 0.58676 0.000331017 0.0646653 -30.1686 20.9558 85.9647 -14.7381 73.7624 -2.40601 0.267923 -16.7775 -1.42871 8.83183 -18.4415 23.0687 -22.4783 -15.2611 84.2422 10.8762 71.7488 -1.41188 -6.34181 -15.9468 1.3342 2.17195 -14.431 -11.4464 
9.61031 83.3341 -13.7833 72.2965 -23.0743 -5.29056 -70.1915 0 88.8779 120.507 68.323 -34.9086 -5.862 18.7833 11.0066 -126.481 43.0069 149.76 156.873 86.4985 -119.108 0.00018586 -17.7889 -24.2869 -65.6955 24.9465 -153.652 29.8925 -1.57093 -92.0264 0.420957 0.000575445 0.35866 -2.10098 6.5912 45.4709 -138.582 0.297985 107.561 16.9866 -9.99064 60.4458 0.58676 0.000331017 0.0646653 -31.4144 21.5707 87.9872 -12.2195 70.9785 -5.75404 0.739491 -17.7077 -1.49175 8.76492 -18.3655 21.6366 -23.2001 -15.7244 83.7917 9.3444 69.2334 0.927318 -5.72281 -13.5657 1.27225 2.17103 -15.3481 -10.5022 
9.68475 84.3334 -15.2312 72.375 -23.3018 -4.96693 -70.1915 0 88.8779 119.379 68.3113 -33.7691 -5.32223 18.463 11.0438 -127.101 43.176 151.904 145.897 85.2515 -108.723 0.0405554 -17.4833 -24.3857 -66.1733 24.3064 -154.399 29.5316 -1.33567 -91.6452 0.420957 0.000575445 0.35866 -2.28186 7.32679 44.8844 -137.977 0.429148 106.427 17.0249 -9.52438 61.6358 0.58676 0.000331017 0.0646653 -32.9244 21.5095 89.7997 -10.5531 68.4671 -8.16535 0.773349 -19.1944 -1.60146 8.20318 -17.6432 22.4173 -23.8659 -16.8512 83.2123 8.73385 67.0676 4.31581 -4.28285 -9.30926 1.07687 2.21484 -17.2075 -9.91624 
9.76082 85.1472 -16.7847 73.0973 -24.0094 -4.44329 -70.1915 0 88.8779 121.079 68.2669 -35.4086 -5.09588 18.8632 10.8081 -125.793 42.4715 151.338 147.736 84.8512 -109.992 0.0294728 -17.6839 -24.0852 -66.4406 23.8117 -155.446 29.189 -1.00513 -91.0816 0.420957 0.000575445 0.35866 -2.26644 7.36804 44.5472 -137.651 0.83315 105.799 17.1527 -9.05204 63.0015 0.58676 0.000331017 0.0646653 -34.4792 21.1291 90.5102 -9.96173 67.3761 -9.07766 0.145155 -19.2526 -1.63424 8.56375 -18.108 21.7519 -24.4062 -18.1404 82.7472 8.74211 65.9549 7.59752 -2.03523 -5.03674 0.713955 2.27087 -18.5196 -12.1436 
9.92461 85.6455 -18.0375 74.0328 -25.1384 -4.20219 -70.1915 0 88.8779 123.048 68.3442 -37.7812 -5.45976 19.3964 10.6888 -124.703 42.0339 151.839 146.686 84.1584 -108.524 0.0842379 -17.4294 -23.7702 -66.2692 23.4981 -156.269 28.2846 -0.710303 -90.6371 0.420957 0.000575445 0.35866 -2.26197 7.54401 43.9292 -136.875 0.732236 104.446 17.9654 -8.69663 64.9778 0.58676 0.000331017 0.0646653 -36.2699 21.0383 91.8489 -9.74644 66.7737 -9.94759 0.501838 -19.2878 -1.62182 9.05274 -18.731 22.8267 -25.2495 -19.1213 82.1085 8.21908 64.6504 8.64281 -2.26158 -3.9499 0.663482 2.13024 -21.0709 -18.6854 
10.0311 85.8185 -18.7318 74.1711 -26.3671 -4.6 -70.1915 0 88.8779 123.168 69.0772 -38.7974 -6.21706 20.0647 10.724 -124.638 41.9258 152.561 146.58 83.8558 -109.478 0.188902 -16.8882 -23.2672 -65.5868 23.1789 -156.751 27.6356 -0.726746 -90.6686 0.420957 0.000575445 0.35866 -2.27335 7.58328 44.0148 -135.626 1.6139 101.97 18.4684 -7.67828 68.1433 0.58676 0.000331017 0.0646653 -37.2039 21.3627 93.465 -9.62463 66.5711 -9.86863 0.928024 -19.8655 -1.64778 8.59156 -18.1383 22.7196 -26.225 -19.4327 81.1372 6.34776 62.053 4.57269 -4.52603 -5.62169 0.945226 2.17183 -22.7851 -16.4926 
10.0739 85.8043 -19.2308 73.9523 -27.0424 -4.97665 -70.1915 0 88.8779 120.509 69.9278 -36.8072 -5.81442 20.5886 10.0862 -124.493 41.2832 152.416 148.931 83.4192 -112.696 0.299418 -16.2485 -22.7857 -65.6187 22.6988 -156.311 27.396 -1.12336 -91.4253 0.420957 0.000575445 0.35866 -2.30043 7.42349 44.9824 -135.066 1.8903 101.207 18.737 -6.86723 70.5215 0.58676 0.000331017 0.0646653 -37.0472 21.158 93.9951 -9.80592 67.0129 -9.3533 1.15513 -21.405 -1.74875 6.92325 -16.0415 23.6587 -27.6987 -19.5104 80.0163 4.40248 58.4339 1.03733 -5.72322 -6.03297 1.05399 2.31419 -19.3849 -10.2668 
